<mxfile host="app.diagrams.net" modified="2020-11-12T13:37:44.963Z" agent="5.0 (Windows NT 10.0; Win64; x64) AppleWebKit/537.36 (KHTML, like Gecko) Chrome/86.0.4240.193 Safari/537.36" etag="omC42hxgqEUjPF9f1M_B" version="13.9.6" type="github">
  <diagram id="6a731a19-8d31-9384-78a2-239565b7b9f0" name="Page-1">
    <mxGraphModel dx="3200" dy="1140" grid="0" gridSize="10" guides="1" tooltips="1" connect="1" arrows="1" fold="1" page="1" pageScale="1" pageWidth="1169" pageHeight="827" background="#ffffff" math="0" shadow="0">
      <root>
        <mxCell id="0" />
        <mxCell id="1" parent="0" />
        <mxCell id="fU0B5mbKIqQJxSJaI-YO-269" style="edgeStyle=orthogonalEdgeStyle;rounded=1;jumpSize=1;orthogonalLoop=1;jettySize=auto;html=1;dashed=1;endArrow=block;endFill=1;endSize=6;strokeWidth=1;fontSize=19;" edge="1" parent="1" source="fU0B5mbKIqQJxSJaI-YO-143" target="fU0B5mbKIqQJxSJaI-YO-147">
          <mxGeometry relative="1" as="geometry" />
        </mxCell>
        <mxCell id="fU0B5mbKIqQJxSJaI-YO-143" value="" style="ellipse;whiteSpace=wrap;html=1;aspect=fixed;fillColor=#1ba1e2;strokeColor=#006EAF;fontColor=#ffffff;" vertex="1" parent="1">
          <mxGeometry x="849" y="150" width="80" height="80" as="geometry" />
        </mxCell>
        <mxCell id="fU0B5mbKIqQJxSJaI-YO-147" value="" style="ellipse;whiteSpace=wrap;html=1;aspect=fixed;fillColor=#1ba1e2;strokeColor=#006EAF;fontColor=#ffffff;" vertex="1" parent="1">
          <mxGeometry x="1636" y="150" width="80" height="80" as="geometry" />
        </mxCell>
        <mxCell id="fU0B5mbKIqQJxSJaI-YO-262" style="edgeStyle=orthogonalEdgeStyle;rounded=1;jumpSize=1;orthogonalLoop=1;jettySize=auto;html=1;entryX=0.5;entryY=0;entryDx=0;entryDy=0;endArrow=block;endFill=1;endSize=6;strokeWidth=1;fontSize=19;" edge="1" parent="1" source="fU0B5mbKIqQJxSJaI-YO-149" target="fU0B5mbKIqQJxSJaI-YO-143">
          <mxGeometry relative="1" as="geometry" />
        </mxCell>
        <mxCell id="fU0B5mbKIqQJxSJaI-YO-149" value="&lt;h2&gt;Edition 1.3&lt;/h2&gt;" style="text;html=1;strokeColor=none;fillColor=none;align=center;verticalAlign=middle;whiteSpace=wrap;rounded=0;fontSize=16;" vertex="1" parent="1">
          <mxGeometry x="814" y="50" width="150" height="20" as="geometry" />
        </mxCell>
        <mxCell id="fU0B5mbKIqQJxSJaI-YO-235" style="edgeStyle=orthogonalEdgeStyle;rounded=1;jumpSize=1;orthogonalLoop=1;jettySize=auto;html=1;endArrow=block;endFill=1;endSize=6;strokeWidth=1;fontSize=19;" edge="1" parent="1" source="fU0B5mbKIqQJxSJaI-YO-151" target="fU0B5mbKIqQJxSJaI-YO-147">
          <mxGeometry relative="1" as="geometry" />
        </mxCell>
        <mxCell id="fU0B5mbKIqQJxSJaI-YO-151" value="&lt;h2&gt;Edition 1.4&lt;/h2&gt;" style="text;html=1;strokeColor=none;fillColor=none;align=center;verticalAlign=middle;whiteSpace=wrap;rounded=0;fontSize=16;" vertex="1" parent="1">
          <mxGeometry x="1601" y="50" width="150" height="20" as="geometry" />
        </mxCell>
        <mxCell id="fU0B5mbKIqQJxSJaI-YO-257" style="edgeStyle=orthogonalEdgeStyle;rounded=1;jumpSize=1;orthogonalLoop=1;jettySize=auto;html=1;dashed=1;endArrow=none;endFill=0;endSize=6;strokeWidth=1;fontSize=19;" edge="1" parent="1" source="fU0B5mbKIqQJxSJaI-YO-157" target="fU0B5mbKIqQJxSJaI-YO-256">
          <mxGeometry relative="1" as="geometry" />
        </mxCell>
        <mxCell id="fU0B5mbKIqQJxSJaI-YO-157" value="merge in &lt;br&gt;projects" style="ellipse;whiteSpace=wrap;html=1;aspect=fixed;fillColor=#6a00ff;fontColor=#ffffff;strokeColor=#3700CC;fontSize=19;" vertex="1" parent="1">
          <mxGeometry x="849" y="386" width="80" height="80" as="geometry" />
        </mxCell>
        <mxCell id="fU0B5mbKIqQJxSJaI-YO-196" style="edgeStyle=orthogonalEdgeStyle;rounded=1;jumpSize=1;orthogonalLoop=1;jettySize=auto;html=1;entryX=0;entryY=0.5;entryDx=0;entryDy=0;endArrow=none;endFill=0;endSize=6;strokeWidth=1;fontSize=19;fillColor=#fa6800;strokeColor=#C73500;" edge="1" parent="1" source="fU0B5mbKIqQJxSJaI-YO-159" target="fU0B5mbKIqQJxSJaI-YO-191">
          <mxGeometry relative="1" as="geometry" />
        </mxCell>
        <mxCell id="fU0B5mbKIqQJxSJaI-YO-210" style="edgeStyle=orthogonalEdgeStyle;rounded=1;jumpSize=1;orthogonalLoop=1;jettySize=auto;html=1;entryX=1;entryY=0.5;entryDx=0;entryDy=0;dashed=1;endArrow=none;endFill=0;endSize=6;strokeWidth=1;fontSize=19;exitX=0;exitY=0.5;exitDx=0;exitDy=0;" edge="1" parent="1" source="fU0B5mbKIqQJxSJaI-YO-159" target="fU0B5mbKIqQJxSJaI-YO-143">
          <mxGeometry relative="1" as="geometry">
            <Array as="points">
              <mxPoint x="999" y="570" />
              <mxPoint x="999" y="190" />
            </Array>
          </mxGeometry>
        </mxCell>
        <mxCell id="fU0B5mbKIqQJxSJaI-YO-159" value="biject" style="ellipse;whiteSpace=wrap;html=1;aspect=fixed;fillColor=#fa6800;fontColor=#ffffff;strokeColor=#C73500;fontSize=19;" vertex="1" parent="1">
          <mxGeometry x="1015" y="530" width="80" height="80" as="geometry" />
        </mxCell>
        <mxCell id="fU0B5mbKIqQJxSJaI-YO-197" style="edgeStyle=orthogonalEdgeStyle;rounded=1;jumpSize=1;orthogonalLoop=1;jettySize=auto;html=1;entryX=0;entryY=0.5;entryDx=0;entryDy=0;endArrow=none;endFill=0;endSize=6;strokeWidth=1;fontSize=19;fillColor=#fa6800;strokeColor=#C73500;" edge="1" parent="1" source="fU0B5mbKIqQJxSJaI-YO-191" target="fU0B5mbKIqQJxSJaI-YO-192">
          <mxGeometry relative="1" as="geometry" />
        </mxCell>
        <mxCell id="fU0B5mbKIqQJxSJaI-YO-191" value="CRxxx" style="ellipse;whiteSpace=wrap;html=1;aspect=fixed;strokeColor=#C73500;fillColor=#fa6800;fontColor=#ffffff;fontSize=19;" vertex="1" parent="1">
          <mxGeometry x="1132" y="530" width="80" height="80" as="geometry" />
        </mxCell>
        <mxCell id="fU0B5mbKIqQJxSJaI-YO-198" style="edgeStyle=orthogonalEdgeStyle;rounded=1;jumpSize=1;orthogonalLoop=1;jettySize=auto;html=1;endArrow=none;endFill=0;endSize=6;strokeWidth=1;fontSize=19;fillColor=#fa6800;strokeColor=#C73500;" edge="1" parent="1" source="fU0B5mbKIqQJxSJaI-YO-192" target="fU0B5mbKIqQJxSJaI-YO-193">
          <mxGeometry relative="1" as="geometry" />
        </mxCell>
        <mxCell id="fU0B5mbKIqQJxSJaI-YO-268" style="edgeStyle=orthogonalEdgeStyle;rounded=1;jumpSize=1;orthogonalLoop=1;jettySize=auto;html=1;entryX=0;entryY=0.5;entryDx=0;entryDy=0;endArrow=block;endFill=1;endSize=6;strokeWidth=1;fontSize=19;dashed=1;" edge="1" parent="1" source="fU0B5mbKIqQJxSJaI-YO-192" target="fU0B5mbKIqQJxSJaI-YO-263">
          <mxGeometry relative="1" as="geometry">
            <Array as="points">
              <mxPoint x="1349" y="570" />
              <mxPoint x="1349" y="190" />
            </Array>
          </mxGeometry>
        </mxCell>
        <mxCell id="fU0B5mbKIqQJxSJaI-YO-192" value="CRxxx" style="ellipse;whiteSpace=wrap;html=1;aspect=fixed;strokeColor=#C73500;fillColor=#fa6800;fontColor=#ffffff;fontSize=19;" vertex="1" parent="1">
          <mxGeometry x="1248" y="530" width="80" height="80" as="geometry" />
        </mxCell>
        <mxCell id="fU0B5mbKIqQJxSJaI-YO-200" style="edgeStyle=orthogonalEdgeStyle;rounded=1;jumpSize=1;orthogonalLoop=1;jettySize=auto;html=1;dashed=1;endArrow=none;endFill=0;endSize=6;strokeWidth=1;fontSize=19;entryX=0;entryY=0.5;entryDx=0;entryDy=0;" edge="1" parent="1" source="fU0B5mbKIqQJxSJaI-YO-193" target="fU0B5mbKIqQJxSJaI-YO-201">
          <mxGeometry relative="1" as="geometry">
            <mxPoint x="1505" y="530" as="targetPoint" />
            <Array as="points">
              <mxPoint x="1484" y="570" />
              <mxPoint x="1484" y="426" />
            </Array>
          </mxGeometry>
        </mxCell>
        <mxCell id="fU0B5mbKIqQJxSJaI-YO-193" value="CRxxx" style="ellipse;whiteSpace=wrap;html=1;aspect=fixed;strokeColor=#C73500;fillColor=#fa6800;fontColor=#ffffff;fontSize=19;" vertex="1" parent="1">
          <mxGeometry x="1370" y="530" width="80" height="80" as="geometry" />
        </mxCell>
        <mxCell id="fU0B5mbKIqQJxSJaI-YO-232" style="edgeStyle=orthogonalEdgeStyle;rounded=1;jumpSize=1;orthogonalLoop=1;jettySize=auto;html=1;entryX=0;entryY=0.5;entryDx=0;entryDy=0;dashed=1;endArrow=none;endFill=0;endSize=6;strokeWidth=1;fontSize=19;" edge="1" parent="1" source="fU0B5mbKIqQJxSJaI-YO-201" target="fU0B5mbKIqQJxSJaI-YO-147">
          <mxGeometry relative="1" as="geometry" />
        </mxCell>
        <mxCell id="fU0B5mbKIqQJxSJaI-YO-201" value="merge&lt;br style=&quot;font-size: 19px&quot;&gt;branches" style="ellipse;whiteSpace=wrap;html=1;aspect=fixed;fillColor=#6a00ff;fontColor=#ffffff;strokeColor=#3700CC;fontSize=19;" vertex="1" parent="1">
          <mxGeometry x="1504" y="386" width="80" height="80" as="geometry" />
        </mxCell>
        <mxCell id="fU0B5mbKIqQJxSJaI-YO-217" style="edgeStyle=orthogonalEdgeStyle;rounded=1;jumpSize=1;orthogonalLoop=1;jettySize=auto;html=1;endArrow=none;endFill=0;endSize=6;strokeWidth=1;fontSize=19;fillColor=#a20025;strokeColor=#6F0000;" edge="1" parent="1" source="fU0B5mbKIqQJxSJaI-YO-211" target="fU0B5mbKIqQJxSJaI-YO-212">
          <mxGeometry relative="1" as="geometry" />
        </mxCell>
        <mxCell id="fU0B5mbKIqQJxSJaI-YO-211" value="CR41" style="ellipse;whiteSpace=wrap;html=1;aspect=fixed;strokeColor=#6F0000;fillColor=#a20025;fontColor=#ffffff;fontSize=19;" vertex="1" parent="1">
          <mxGeometry x="142" y="276" width="80" height="80" as="geometry" />
        </mxCell>
        <mxCell id="fU0B5mbKIqQJxSJaI-YO-218" style="edgeStyle=orthogonalEdgeStyle;rounded=1;jumpSize=1;orthogonalLoop=1;jettySize=auto;html=1;endArrow=none;endFill=0;endSize=6;strokeWidth=1;fontSize=19;fillColor=#a20025;strokeColor=#6F0000;" edge="1" parent="1" source="fU0B5mbKIqQJxSJaI-YO-212" target="fU0B5mbKIqQJxSJaI-YO-213">
          <mxGeometry relative="1" as="geometry" />
        </mxCell>
        <mxCell id="fU0B5mbKIqQJxSJaI-YO-212" value="CR42" style="ellipse;whiteSpace=wrap;html=1;aspect=fixed;strokeColor=#6F0000;fillColor=#a20025;fontColor=#ffffff;fontSize=19;" vertex="1" parent="1">
          <mxGeometry x="242" y="276" width="80" height="80" as="geometry" />
        </mxCell>
        <mxCell id="fU0B5mbKIqQJxSJaI-YO-219" style="edgeStyle=orthogonalEdgeStyle;rounded=1;jumpSize=1;orthogonalLoop=1;jettySize=auto;html=1;entryX=0;entryY=0.5;entryDx=0;entryDy=0;endArrow=none;endFill=0;endSize=6;strokeWidth=1;fontSize=19;fillColor=#a20025;strokeColor=#6F0000;" edge="1" parent="1" source="fU0B5mbKIqQJxSJaI-YO-213" target="fU0B5mbKIqQJxSJaI-YO-214">
          <mxGeometry relative="1" as="geometry" />
        </mxCell>
        <mxCell id="fU0B5mbKIqQJxSJaI-YO-213" value="CR43" style="ellipse;whiteSpace=wrap;html=1;aspect=fixed;strokeColor=#6F0000;fillColor=#a20025;fontColor=#ffffff;fontSize=19;" vertex="1" parent="1">
          <mxGeometry x="342" y="276" width="80" height="80" as="geometry" />
        </mxCell>
        <mxCell id="fU0B5mbKIqQJxSJaI-YO-220" style="edgeStyle=orthogonalEdgeStyle;rounded=1;jumpSize=1;orthogonalLoop=1;jettySize=auto;html=1;entryX=0;entryY=0.5;entryDx=0;entryDy=0;endArrow=none;endFill=0;endSize=6;strokeWidth=1;fontSize=19;fillColor=#a20025;strokeColor=#6F0000;" edge="1" parent="1" source="fU0B5mbKIqQJxSJaI-YO-214" target="fU0B5mbKIqQJxSJaI-YO-215">
          <mxGeometry relative="1" as="geometry" />
        </mxCell>
        <mxCell id="fU0B5mbKIqQJxSJaI-YO-214" value="CR44" style="ellipse;whiteSpace=wrap;html=1;aspect=fixed;strokeColor=#6F0000;fillColor=#a20025;fontColor=#ffffff;fontSize=19;" vertex="1" parent="1">
          <mxGeometry x="442" y="276" width="80" height="80" as="geometry" />
        </mxCell>
        <mxCell id="fU0B5mbKIqQJxSJaI-YO-221" style="edgeStyle=orthogonalEdgeStyle;rounded=1;jumpSize=1;orthogonalLoop=1;jettySize=auto;html=1;entryX=0;entryY=0.5;entryDx=0;entryDy=0;endArrow=none;endFill=0;endSize=6;strokeWidth=1;fontSize=19;fillColor=#a20025;strokeColor=#6F0000;" edge="1" parent="1" source="fU0B5mbKIqQJxSJaI-YO-215" target="fU0B5mbKIqQJxSJaI-YO-216">
          <mxGeometry relative="1" as="geometry" />
        </mxCell>
        <mxCell id="fU0B5mbKIqQJxSJaI-YO-215" value="CR45" style="ellipse;whiteSpace=wrap;html=1;aspect=fixed;strokeColor=#6F0000;fillColor=#a20025;fontColor=#ffffff;fontSize=19;" vertex="1" parent="1">
          <mxGeometry x="542" y="276" width="80" height="80" as="geometry" />
        </mxCell>
        <mxCell id="fU0B5mbKIqQJxSJaI-YO-247" style="edgeStyle=orthogonalEdgeStyle;rounded=1;jumpSize=1;orthogonalLoop=1;jettySize=auto;html=1;exitX=1;exitY=0.5;exitDx=0;exitDy=0;entryX=0;entryY=0.5;entryDx=0;entryDy=0;dashed=1;endArrow=none;endFill=0;endSize=6;strokeWidth=1;fontSize=19;" edge="1" parent="1" source="fU0B5mbKIqQJxSJaI-YO-216" target="fU0B5mbKIqQJxSJaI-YO-157">
          <mxGeometry relative="1" as="geometry" />
        </mxCell>
        <mxCell id="fU0B5mbKIqQJxSJaI-YO-216" value="CR46" style="ellipse;whiteSpace=wrap;html=1;aspect=fixed;strokeColor=#6F0000;fillColor=#a20025;fontColor=#ffffff;fontSize=19;" vertex="1" parent="1">
          <mxGeometry x="642" y="276" width="80" height="80" as="geometry" />
        </mxCell>
        <mxCell id="fU0B5mbKIqQJxSJaI-YO-225" style="edgeStyle=orthogonalEdgeStyle;rounded=1;jumpSize=1;orthogonalLoop=1;jettySize=auto;html=1;entryX=0;entryY=0.5;entryDx=0;entryDy=0;endArrow=none;endFill=0;endSize=6;strokeWidth=1;fontSize=19;fillColor=#6a00ff;strokeColor=#3700CC;" edge="1" parent="1" source="fU0B5mbKIqQJxSJaI-YO-222" target="fU0B5mbKIqQJxSJaI-YO-223">
          <mxGeometry relative="1" as="geometry" />
        </mxCell>
        <mxCell id="fU0B5mbKIqQJxSJaI-YO-222" value="CR47" style="ellipse;whiteSpace=wrap;html=1;aspect=fixed;strokeColor=#3700CC;fillColor=#6a00ff;fontColor=#ffffff;fontSize=19;" vertex="1" parent="1">
          <mxGeometry x="93" y="386" width="80" height="80" as="geometry" />
        </mxCell>
        <mxCell id="fU0B5mbKIqQJxSJaI-YO-226" style="edgeStyle=orthogonalEdgeStyle;rounded=1;jumpSize=1;orthogonalLoop=1;jettySize=auto;html=1;entryX=0;entryY=0.5;entryDx=0;entryDy=0;endArrow=none;endFill=0;endSize=6;strokeWidth=1;fontSize=19;fillColor=#6a00ff;strokeColor=#3700CC;" edge="1" parent="1" source="fU0B5mbKIqQJxSJaI-YO-223" target="fU0B5mbKIqQJxSJaI-YO-224">
          <mxGeometry relative="1" as="geometry" />
        </mxCell>
        <mxCell id="fU0B5mbKIqQJxSJaI-YO-223" value="CR48" style="ellipse;whiteSpace=wrap;html=1;aspect=fixed;strokeColor=#3700CC;fillColor=#6a00ff;fontColor=#ffffff;fontSize=19;" vertex="1" parent="1">
          <mxGeometry x="290" y="386" width="80" height="80" as="geometry" />
        </mxCell>
        <mxCell id="fU0B5mbKIqQJxSJaI-YO-244" style="edgeStyle=orthogonalEdgeStyle;rounded=1;jumpSize=1;orthogonalLoop=1;jettySize=auto;html=1;entryX=0;entryY=0.5;entryDx=0;entryDy=0;endArrow=block;endFill=1;endSize=6;strokeWidth=1;fontSize=19;dashed=1;" edge="1" parent="1" source="fU0B5mbKIqQJxSJaI-YO-224" target="fU0B5mbKIqQJxSJaI-YO-157">
          <mxGeometry relative="1" as="geometry" />
        </mxCell>
        <mxCell id="fU0B5mbKIqQJxSJaI-YO-224" value="CR49" style="ellipse;whiteSpace=wrap;html=1;aspect=fixed;strokeColor=#3700CC;fillColor=#6a00ff;fontColor=#ffffff;fontSize=19;" vertex="1" parent="1">
          <mxGeometry x="558" y="386" width="80" height="80" as="geometry" />
        </mxCell>
        <mxCell id="fU0B5mbKIqQJxSJaI-YO-229" value="&lt;h2 style=&quot;font-size: 21px&quot;&gt;SWINg&lt;/h2&gt;" style="text;html=1;strokeColor=#6F0000;fillColor=#a20025;align=center;verticalAlign=middle;whiteSpace=wrap;rounded=0;fontSize=21;fontColor=#ffffff;" vertex="1" parent="1">
          <mxGeometry x="90" y="253" width="160" height="20" as="geometry" />
        </mxCell>
        <mxCell id="fU0B5mbKIqQJxSJaI-YO-230" value="&lt;h2 style=&quot;font-size: 21px&quot;&gt;RIS COMEX&lt;/h2&gt;" style="text;html=1;strokeColor=#3700CC;fillColor=#6a00ff;align=center;verticalAlign=middle;whiteSpace=wrap;rounded=0;fontSize=21;fontColor=#ffffff;" vertex="1" parent="1">
          <mxGeometry x="69" y="375" width="160" height="20" as="geometry" />
        </mxCell>
        <mxCell id="fU0B5mbKIqQJxSJaI-YO-240" style="edgeStyle=orthogonalEdgeStyle;rounded=1;jumpSize=1;orthogonalLoop=1;jettySize=auto;html=1;entryX=0;entryY=0.5;entryDx=0;entryDy=0;endArrow=block;endFill=1;endSize=6;strokeWidth=1;fontSize=19;exitX=1;exitY=0.5;exitDx=0;exitDy=0;" edge="1" parent="1" source="fU0B5mbKIqQJxSJaI-YO-236" target="fU0B5mbKIqQJxSJaI-YO-211">
          <mxGeometry relative="1" as="geometry" />
        </mxCell>
        <mxCell id="fU0B5mbKIqQJxSJaI-YO-243" style="edgeStyle=orthogonalEdgeStyle;rounded=1;jumpSize=1;orthogonalLoop=1;jettySize=auto;html=1;entryX=0;entryY=0.5;entryDx=0;entryDy=0;endArrow=block;endFill=1;endSize=6;strokeWidth=1;fontSize=19;" edge="1" parent="1" source="fU0B5mbKIqQJxSJaI-YO-236" target="fU0B5mbKIqQJxSJaI-YO-222">
          <mxGeometry relative="1" as="geometry" />
        </mxCell>
        <mxCell id="fU0B5mbKIqQJxSJaI-YO-245" style="edgeStyle=orthogonalEdgeStyle;rounded=1;jumpSize=1;orthogonalLoop=1;jettySize=auto;html=1;entryX=0;entryY=0.5;entryDx=0;entryDy=0;endArrow=none;endFill=0;endSize=6;strokeWidth=1;fontSize=19;" edge="1" parent="1" source="fU0B5mbKIqQJxSJaI-YO-236" target="fU0B5mbKIqQJxSJaI-YO-143">
          <mxGeometry relative="1" as="geometry" />
        </mxCell>
        <mxCell id="fU0B5mbKIqQJxSJaI-YO-236" value="" style="ellipse;whiteSpace=wrap;html=1;aspect=fixed;fillColor=#1ba1e2;strokeColor=#006EAF;fontColor=#ffffff;" vertex="1" parent="1">
          <mxGeometry x="-57" y="150" width="80" height="80" as="geometry" />
        </mxCell>
        <mxCell id="fU0B5mbKIqQJxSJaI-YO-242" style="edgeStyle=orthogonalEdgeStyle;rounded=1;jumpSize=1;orthogonalLoop=1;jettySize=auto;html=1;entryX=0.5;entryY=0;entryDx=0;entryDy=0;endArrow=block;endFill=1;endSize=6;strokeWidth=1;fontSize=19;" edge="1" parent="1" source="fU0B5mbKIqQJxSJaI-YO-239" target="fU0B5mbKIqQJxSJaI-YO-236">
          <mxGeometry relative="1" as="geometry" />
        </mxCell>
        <mxCell id="fU0B5mbKIqQJxSJaI-YO-239" value="&lt;h2&gt;Edition 1.2&lt;/h2&gt;" style="text;html=1;strokeColor=none;fillColor=none;align=center;verticalAlign=middle;whiteSpace=wrap;rounded=0;fontSize=16;" vertex="1" parent="1">
          <mxGeometry x="-92" y="50" width="150" height="20" as="geometry" />
        </mxCell>
        <mxCell id="fU0B5mbKIqQJxSJaI-YO-241" style="edgeStyle=orthogonalEdgeStyle;rounded=1;jumpSize=1;orthogonalLoop=1;jettySize=auto;html=1;exitX=0.25;exitY=1;exitDx=0;exitDy=0;entryX=0.314;entryY=1.286;entryDx=0;entryDy=0;entryPerimeter=0;endArrow=block;endFill=1;endSize=6;strokeWidth=1;fontSize=19;" edge="1" parent="1" source="fU0B5mbKIqQJxSJaI-YO-239" target="fU0B5mbKIqQJxSJaI-YO-239">
          <mxGeometry relative="1" as="geometry" />
        </mxCell>
        <mxCell id="fU0B5mbKIqQJxSJaI-YO-259" style="edgeStyle=orthogonalEdgeStyle;rounded=1;jumpSize=1;orthogonalLoop=1;jettySize=auto;html=1;entryX=0;entryY=0.5;entryDx=0;entryDy=0;dashed=1;endArrow=none;endFill=0;endSize=6;strokeWidth=1;fontSize=19;" edge="1" parent="1" source="fU0B5mbKIqQJxSJaI-YO-256" target="fU0B5mbKIqQJxSJaI-YO-201">
          <mxGeometry relative="1" as="geometry" />
        </mxCell>
        <mxCell id="fU0B5mbKIqQJxSJaI-YO-256" value="CRxx" style="ellipse;whiteSpace=wrap;html=1;aspect=fixed;fillColor=#6a00ff;fontColor=#ffffff;strokeColor=#3700CC;fontSize=19;" vertex="1" parent="1">
          <mxGeometry x="1101" y="386" width="80" height="80" as="geometry" />
        </mxCell>
        <mxCell id="fU0B5mbKIqQJxSJaI-YO-261" value="&lt;h2 style=&quot;font-size: 21px&quot;&gt;bijection EDIFACT&lt;/h2&gt;" style="text;html=1;strokeColor=#C73500;fillColor=#fa6800;align=center;verticalAlign=middle;whiteSpace=wrap;rounded=0;fontSize=21;fontColor=#ffffff;" vertex="1" parent="1">
          <mxGeometry x="984" y="514" width="267" height="20" as="geometry" />
        </mxCell>
        <mxCell id="fU0B5mbKIqQJxSJaI-YO-263" value="" style="ellipse;whiteSpace=wrap;html=1;aspect=fixed;fillColor=#6a00ff;fontColor=#ffffff;strokeColor=#3700CC;fontSize=19;" vertex="1" parent="1">
          <mxGeometry x="1394" y="150" width="80" height="80" as="geometry" />
        </mxCell>
      </root>
    </mxGraphModel>
  </diagram>
</mxfile>
